<svg width="160" height="48" viewBox="0 0 160 48" fill="none" xmlns="http://www.w3.org/2000/svg">
  <rect x="2" y="2" width="44" height="44" rx="14" fill="url(#paint0_linear)"/>
  <path d="M15 18.6C15 15.5072 17.5072 13 20.6 13H27.4C30.4928 13 33 15.5072 33 18.6C33 21.6928 30.4928 24.2 27.4 24.2H20.6C18.8337 24.2 17.4 25.6337 17.4 27.4C17.4 29.1663 18.8337 30.6 20.6 30.6H33" stroke="white" stroke-width="4" stroke-linecap="round"/>
  <path d="M65 17.5H72.6C78.9 17.5 82.7 21.2 82.7 27.2C82.7 33.3 78.9 37 72.6 37H65V17.5ZM72.1 32.9C75.5 32.9 77.8 30.8 77.8 27.2C77.8 23.7 75.5 21.6 72.1 21.6H69.7V32.9H72.1Z" fill="#14213D"/>
  <path d="M87.0266 17.5H91.7266V37H87.0266V17.5Z" fill="#14213D"/>
  <path d="M96.857 17.5H101.417L110.257 29.28V17.5H114.957V37H110.757L101.557 24.75V37H96.857V17.5Z" fill="#14213D"/>
  <path d="M127.146 37.36C121.006 37.36 116.826 33.16 116.826 27.25C116.826 21.34 121.006 17.14 127.146 17.14C130.546 17.14 133.356 18.38 135.196 20.71L132.186 23.49C130.806 21.91 129.066 21.1 127.386 21.1C124.246 21.1 122.016 23.3 122.016 27.25C122.016 31.2 124.246 33.4 127.386 33.4C129.066 33.4 130.806 32.59 132.186 30.98L135.196 33.76C133.356 36.12 130.546 37.36 127.146 37.36Z" fill="#14213D"/>
  <defs>
    <linearGradient id="paint0_linear" x1="2" y1="2" x2="46" y2="46" gradientUnits="userSpaceOnUse">
      <stop stop-color="#1FD6A1"/>
      <stop offset="1" stop-color="#F77F39"/>
    </linearGradient>
  </defs>
</svg><svg width="160" height="48" viewBox="0 0 160 48" fill="none" xmlns="http://www.w3.org/2000/svg">
  <rect width="48" height="48" rx="16" fill="url(#paint0_linear_1_2)"/>
  <path d="M18.4 17.7C18.4 14.55 20.95 12 24.1 12H31.9C35.05 12 37.6 14.55 37.6 17.7C37.6 20.85 35.05 23.4 31.9 23.4H24.1C22.53 23.4 21.25 24.68 21.25 26.25C21.25 27.82 22.53 29.1 24.1 29.1H37.2V33.3H24.1C20.95 33.3 18.4 30.75 18.4 27.6C18.4 24.45 20.95 21.9 24.1 21.9H31.9C33.47 21.9 34.75 20.62 34.75 19.05C34.75 17.48 33.47 16.2 31.9 16.2H18.8L18.4 17.7Z" fill="white"/>
  <path d="M64 31V17.48H69.664C71.072 17.48 72.208 17.8 73.072 18.44C73.936 19.064 74.368 19.968 74.368 21.152C74.368 21.968 74.16 22.664 73.744 23.24C73.328 23.8 72.76 24.216 72.04 24.488C72.936 24.712 73.648 25.136 74.176 25.76C74.72 26.368 74.992 27.168 74.992 28.16C74.992 29.488 74.536 30.512 73.624 31.232C72.728 31.936 71.52 32.288 70 32.288C68.752 32.288 67.632 32.056 66.64 31.592C65.664 31.128 64.784 30.68 64 31ZM66.592 23.816H69.424C70.224 23.816 70.856 23.648 71.32 23.312C71.8 22.976 72.04 22.48 72.04 21.824C72.04 21.12 71.808 20.608 71.344 20.288C70.88 19.952 70.224 19.784 69.376 19.784H66.592V23.816ZM66.592 29.984H69.784C70.664 29.984 71.352 29.8 71.848 29.432C72.36 29.064 72.616 28.504 72.616 27.752C72.616 27.016 72.376 26.456 71.896 26.072C71.416 25.688 70.712 25.496 69.784 25.496H66.592V29.984Z" fill="#14213D"/>
  <path d="M83.3566 32.288C82.2846 32.288 81.3246 32.056 80.4766 31.592C79.6446 31.128 78.9886 30.472 78.5086 29.624C78.0286 28.76 77.7886 27.752 77.7886 26.6C77.7886 25.448 78.0286 24.448 78.5086 23.6C79.0046 22.736 79.6766 22.072 80.5246 21.608C81.3886 21.144 82.3646 20.912 83.4526 20.912C84.5246 20.912 85.4686 21.144 86.2846 21.608C87.1166 22.072 87.7646 22.728 88.2286 23.576C88.7086 24.408 88.9486 25.384 88.9486 26.504C88.9486 26.712 88.9406 26.912 88.9246 27.104C88.9246 27.296 88.9166 27.48 88.9006 27.656H80.3806C80.4606 28.6 80.7886 29.336 81.3646 29.864C81.9566 30.392 82.6766 30.656 83.5246 30.656C84.1646 30.656 84.7006 30.52 85.1326 30.248C85.5806 29.96 85.9166 29.584 86.1406 29.12H88.7086C88.4046 30.176 87.7886 31.04 86.8606 31.712C85.9486 32.368 84.7806 32.696 83.3566 32.696V32.288ZM83.3566 22.528C82.6046 22.528 81.9326 22.744 81.3406 23.176C80.7486 23.592 80.4686 24.216 80.5006 25.048H86.4526C86.4046 24.28 86.1166 23.672 85.5886 23.224C85.0606 22.76 84.3166 22.528 83.3566 22.528Z" fill="#14213D"/>
  <path d="M96.5279 32.288C95.5199 32.288 94.6319 32.112 93.8639 31.76C93.1119 31.392 92.5199 30.88 92.0879 30.224C91.6559 29.552 91.4399 28.76 91.4399 27.848V21.2H93.9839V27.608C93.9839 28.632 94.2399 29.4 94.7519 29.912C95.2799 30.424 95.9839 30.68 96.8639 30.68C97.7599 30.68 98.4639 30.424 98.9759 29.912C99.4879 29.4 99.7439 28.632 99.7439 27.608V21.2H102.288V32H100.008L99.8159 30.176C99.4799 30.816 98.9839 31.32 98.3279 31.688C97.6879 32.056 96.9679 32.256 96.1679 32.288H96.5279Z" fill="#14213D"/>
  <defs>
    <linearGradient id="paint0_linear_1_2" x1="7.2" y1="6" x2="45" y2="44.4" gradientUnits="userSpaceOnUse">
      <stop stop-color="#1FD6A1"/>
      <stop offset="1" stop-color="#F77F39"/>
    </linearGradient>
  </defs>
</svg>